<svg width="361" height="203" viewBox="0 0 361 203" fill="none" xmlns="http://www.w3.org/2000/svg">
<g filter="url(#filter0_d_1_911)">
<rect x="0.994507" y="0.985352" width="359.011" height="200.044" rx="9.9449" fill="white"/>
<rect x="1.65105e-05" y="-0.00913876" width="361" height="202.033" rx="10.9394" stroke="#E11C4B" stroke-width="1.98898"/>
</g>
<path d="M130.048 71.8547V74.137H123.016V71.8547H130.048ZM132.126 71.8547V85.9951H129.213V71.8547H132.126ZM122.647 71.8547H125.551L125.192 78.954C125.14 80.0159 125.04 80.9385 124.891 81.7219C124.748 82.5053 124.554 83.1722 124.308 83.7226C124.062 84.2664 123.758 84.7067 123.395 85.0434C123.039 85.3736 122.618 85.6164 122.133 85.7717C121.647 85.9207 121.094 85.9951 120.472 85.9951H119.753V83.7226L120.122 83.6934C120.44 83.661 120.718 83.5769 120.958 83.4409C121.197 83.3049 121.401 83.101 121.569 82.8291C121.744 82.5571 121.887 82.2107 121.997 81.7899C122.113 81.3626 122.204 80.8414 122.269 80.2263C122.34 79.6112 122.388 78.8925 122.414 78.0703L122.647 71.8547ZM137.273 82.091L140.799 75.4869H143.596V85.9951H140.799V79.3814L137.273 85.9951H134.476V75.4869H137.273V82.091ZM148.733 75.4869V85.9951H145.936V75.4869H148.733ZM155.561 75.4869L151.035 82.0618H148.238L147.898 79.4785H149.753L152.016 75.4869H155.561ZM152.142 85.9951L149.559 81.5568L151.997 80.2069L155.891 85.9951H152.142ZM162.175 81.6054H158.882L158.863 79.7698H161.582C161.945 79.7698 162.239 79.7342 162.466 79.663C162.693 79.5853 162.858 79.472 162.961 79.3231C163.071 79.1677 163.126 78.9799 163.126 78.7598C163.126 78.5656 163.091 78.4005 163.019 78.2645C162.955 78.1221 162.854 78.0055 162.718 77.9149C162.582 77.8242 162.411 77.7595 162.204 77.7206C162.003 77.6753 161.767 77.6527 161.495 77.6527H159.921V85.9951H157.124V75.4869H161.495C162.181 75.4869 162.796 75.5484 163.34 75.6715C163.884 75.788 164.347 75.966 164.729 76.2056C165.117 76.4452 165.412 76.7495 165.613 77.1185C165.82 77.4811 165.923 77.9116 165.923 78.4102C165.923 78.7339 165.849 79.0382 165.7 79.3231C165.557 79.608 165.344 79.8605 165.059 80.0806C164.774 80.3008 164.421 80.482 164 80.6245C163.586 80.7604 163.107 80.8446 162.563 80.877L162.175 81.6054ZM162.175 85.9951H158.193L159.154 83.8294H162.175C162.518 83.8294 162.799 83.7873 163.019 83.7031C163.24 83.619 163.401 83.4959 163.505 83.3341C163.615 83.1657 163.67 82.965 163.67 82.7319C163.67 82.5053 163.622 82.3079 163.524 82.1395C163.427 81.9712 163.269 81.8417 163.049 81.7511C162.835 81.6539 162.544 81.6054 162.175 81.6054H159.562L159.581 79.7698H162.553L163.233 80.5079C163.971 80.5533 164.58 80.6925 165.059 80.9255C165.538 81.1586 165.891 81.4565 166.118 81.819C166.351 82.1751 166.467 82.5668 166.467 82.9942C166.467 83.4927 166.373 83.9297 166.186 84.3053C165.998 84.6808 165.719 84.9948 165.35 85.2473C164.988 85.4933 164.541 85.6811 164.01 85.8106C163.479 85.9336 162.867 85.9951 162.175 85.9951ZM170.973 82.091L174.499 75.4869H177.296V85.9951H174.499V79.3814L170.973 85.9951H168.176V75.4869H170.973V82.091ZM181.346 75.4869H184.143L184.055 79.0026C184.029 80.1292 183.9 81.0971 183.667 81.9064C183.434 82.7158 183.123 83.3956 182.734 83.9459C182.346 84.4963 181.902 84.9365 181.404 85.2667C180.912 85.5905 180.394 85.8333 179.85 85.9951H179.326L179.296 83.8391L179.588 83.81C179.918 83.4668 180.19 83.1334 180.404 82.8096C180.617 82.4794 180.782 82.1331 180.899 81.7705C181.015 81.4079 181.1 81.0032 181.151 80.5565C181.21 80.1098 181.245 79.5918 181.258 79.0026L181.346 75.4869ZM182.103 75.4869H189.067V85.9951H186.279V77.7304H182.103V75.4869ZM178.685 83.81H190.572V89.1515H187.775V85.9951H181.55V89.1515H178.685V83.81ZM197.671 83.6254V78.9443C197.671 78.6077 197.616 78.3195 197.506 78.08C197.396 77.834 197.225 77.643 196.991 77.507C196.765 77.371 196.47 77.303 196.108 77.303C195.797 77.303 195.528 77.3581 195.302 77.4681C195.075 77.5717 194.9 77.7239 194.777 77.9246C194.654 78.1188 194.593 78.3487 194.593 78.6141H191.796C191.796 78.1674 191.899 77.7433 192.106 77.3419C192.314 76.9405 192.615 76.5876 193.01 76.2833C193.405 75.9725 193.874 75.7297 194.418 75.5549C194.968 75.3801 195.583 75.2927 196.263 75.2927C197.079 75.2927 197.804 75.4287 198.438 75.7006C199.073 75.9725 199.572 76.3804 199.934 76.9243C200.303 77.4681 200.488 78.148 200.488 78.9638V83.4603C200.488 84.0366 200.523 84.5092 200.595 84.8783C200.666 85.2408 200.769 85.5581 200.905 85.83V85.9951H198.079C197.943 85.7102 197.84 85.3541 197.768 84.9268C197.704 84.493 197.671 84.0592 197.671 83.6254ZM198.04 79.595L198.06 81.1781H196.496C196.127 81.1781 195.807 81.2201 195.535 81.3043C195.263 81.3885 195.039 81.5083 194.865 81.6636C194.69 81.8126 194.56 81.9874 194.476 82.1881C194.398 82.3888 194.36 82.6089 194.36 82.8485C194.36 83.088 194.415 83.3049 194.525 83.4992C194.635 83.6869 194.793 83.8359 195 83.9459C195.208 84.0495 195.45 84.1013 195.729 84.1013C196.15 84.1013 196.516 84.0171 196.826 83.8488C197.137 83.6805 197.377 83.4733 197.545 83.2272C197.72 82.9812 197.81 82.7481 197.817 82.528L198.555 83.7128C198.451 83.9783 198.309 84.2535 198.128 84.5383C197.953 84.8232 197.73 85.0919 197.458 85.3444C197.186 85.5905 196.859 85.7944 196.477 85.9563C196.095 86.1117 195.641 86.1894 195.117 86.1894C194.45 86.1894 193.845 86.0566 193.301 85.7912C192.764 85.5192 192.336 85.147 192.019 84.6743C191.708 84.1952 191.553 83.6513 191.553 83.0427C191.553 82.4924 191.656 82.0036 191.864 81.5762C192.071 81.1489 192.375 80.7896 192.776 80.4982C193.184 80.2004 193.693 79.977 194.301 79.8281C194.91 79.6727 195.616 79.595 196.418 79.595H198.04ZM202.634 85.9951V75.4869H205.431V83.81H208.947V75.4869H211.753V85.9951H202.634ZM213.327 83.8197L213.142 89.1126H210.539V85.9951H209.364V83.8197H213.327ZM217.532 82.091L221.057 75.4869H223.854V85.9951H221.057V79.3814L217.532 85.9951H214.735V75.4869H217.532V82.091ZM228.273 80.7507H231.109L228.186 85.9951H225.36L228.273 80.7507ZM230.157 75.4869H234.77V85.9951H231.973V77.6527H230.157C229.775 77.6527 229.458 77.7239 229.206 77.8663C228.953 78.0023 228.765 78.1803 228.642 78.4005C228.526 78.6141 228.467 78.8343 228.467 79.0609C228.467 79.281 228.526 79.4947 228.642 79.7019C228.759 79.909 228.94 80.0806 229.186 80.2166C229.432 80.3525 229.74 80.4205 230.109 80.4205H233.013V82.324H230.109C229.416 82.324 228.794 82.2399 228.244 82.0715C227.7 81.9032 227.234 81.6701 226.846 81.3723C226.464 81.068 226.169 80.7151 225.962 80.3137C225.761 79.9058 225.661 79.4591 225.661 78.9735C225.661 78.4685 225.764 78.0055 225.971 77.5847C226.179 77.1638 226.477 76.7948 226.865 76.4775C227.253 76.1603 227.723 75.9175 228.273 75.7491C228.83 75.5743 229.458 75.4869 230.157 75.4869ZM240.296 71.8547L239.976 81.6734H237.645L237.315 71.8547H240.296ZM237.237 84.7132C237.237 84.2988 237.38 83.9556 237.665 83.6837C237.956 83.4053 238.338 83.2661 238.811 83.2661C239.29 83.2661 239.672 83.4053 239.957 83.6837C240.241 83.9556 240.384 84.2988 240.384 84.7132C240.384 85.1146 240.241 85.4545 239.957 85.7329C239.672 86.0113 239.29 86.1505 238.811 86.1505C238.338 86.1505 237.956 86.0113 237.665 85.7329C237.38 85.4545 237.237 85.1146 237.237 84.7132ZM119.064 104.304H121.968C121.909 105.256 121.647 106.101 121.181 106.839C120.721 107.577 120.077 108.153 119.248 108.568C118.426 108.982 117.435 109.189 116.276 109.189C115.37 109.189 114.557 109.034 113.839 108.723C113.12 108.406 112.505 107.953 111.994 107.364C111.489 106.774 111.103 106.062 110.838 105.227C110.572 104.392 110.44 103.456 110.44 102.42V101.439C110.44 100.403 110.576 99.4678 110.848 98.6326C111.126 97.7909 111.521 97.0755 112.032 96.4863C112.55 95.8971 113.169 95.4439 113.887 95.1266C114.606 94.8094 115.409 94.6508 116.296 94.6508C117.474 94.6508 118.468 94.8644 119.277 95.2917C120.093 95.7191 120.725 96.3082 121.171 97.0593C121.624 97.8103 121.896 98.665 121.987 99.6232H119.073C119.041 99.0535 118.928 98.5711 118.734 98.1762C118.539 97.7747 118.245 97.4737 117.85 97.273C117.461 97.0658 116.943 96.9622 116.296 96.9622C115.81 96.9622 115.386 97.0528 115.024 97.2341C114.661 97.4154 114.357 97.6906 114.111 98.0596C113.865 98.4287 113.68 98.8948 113.557 99.4581C113.441 100.015 113.382 100.669 113.382 101.42V102.42C113.382 103.152 113.437 103.796 113.547 104.353C113.658 104.903 113.826 105.369 114.052 105.751C114.286 106.127 114.583 106.412 114.946 106.606C115.315 106.794 115.759 106.888 116.276 106.888C116.885 106.888 117.387 106.791 117.782 106.596C118.177 106.402 118.478 106.114 118.685 105.732C118.899 105.35 119.025 104.874 119.064 104.304ZM126.688 98.4869V108.995H123.891V98.4869H126.688ZM133.515 98.4869L128.989 105.062H126.192L125.852 102.478H127.707L129.97 98.4869H133.515ZM130.096 108.995L127.513 104.557L129.951 103.207L133.845 108.995H130.096ZM137.681 105.091L141.207 98.4869H144.004V108.995H141.207V102.381L137.681 108.995H134.884V98.4869H137.681V105.091ZM148.054 98.4869H150.851L150.763 102.003C150.737 103.129 150.608 104.097 150.375 104.906C150.142 105.716 149.831 106.396 149.442 106.946C149.054 107.496 148.61 107.937 148.112 108.267C147.62 108.59 147.102 108.833 146.558 108.995H146.034L146.004 106.839L146.296 106.81C146.626 106.467 146.898 106.133 147.112 105.81C147.325 105.479 147.49 105.133 147.607 104.77C147.723 104.408 147.808 104.003 147.859 103.556C147.918 103.11 147.953 102.592 147.966 102.003L148.054 98.4869ZM148.811 98.4869H155.774V108.995H152.987V100.73H148.811V98.4869ZM145.393 106.81H157.28V112.151H154.483V108.995H148.258V112.151H145.393V106.81ZM161.572 98.4869V108.995H158.775V98.4869H161.572ZM168.4 98.4869L163.874 105.062H161.077L160.737 102.478H162.592L164.855 98.4869H168.4ZM164.981 108.995L162.398 104.557L164.836 103.207L168.73 108.995H164.981ZM172.566 105.091L176.092 98.4869H178.889V108.995H176.092V102.381L172.566 108.995H169.769V98.4869H172.566V105.091ZM187.891 98.4869H190.688L190.601 102.003C190.575 103.129 190.446 104.097 190.213 104.906C189.979 105.716 189.669 106.396 189.28 106.946C188.892 107.496 188.448 107.937 187.95 108.267C187.458 108.59 186.94 108.833 186.396 108.995H185.871L185.842 106.839L186.134 106.81C186.464 106.467 186.736 106.133 186.949 105.81C187.163 105.479 187.328 105.133 187.445 104.77C187.561 104.408 187.645 104.003 187.697 103.556C187.755 103.11 187.791 102.592 187.804 102.003L187.891 98.4869ZM188.649 98.4869H195.612V108.995H192.825V100.73H188.649V98.4869ZM185.23 106.81H197.118V112.151H194.321V108.995H188.095V112.151H185.23V106.81ZM198.099 103.848V103.644C198.099 102.873 198.209 102.164 198.429 101.517C198.649 100.863 198.969 100.297 199.39 99.8174C199.811 99.3383 200.329 98.966 200.944 98.7006C201.559 98.4287 202.265 98.2927 203.061 98.2927C203.858 98.2927 204.567 98.4287 205.188 98.7006C205.81 98.966 206.331 99.3383 206.752 99.8174C207.179 100.297 207.503 100.863 207.723 101.517C207.943 102.164 208.053 102.873 208.053 103.644V103.848C208.053 104.612 207.943 105.321 207.723 105.975C207.503 106.622 207.179 107.189 206.752 107.674C206.331 108.153 205.813 108.526 205.198 108.791C204.583 109.057 203.877 109.189 203.081 109.189C202.284 109.189 201.575 109.057 200.954 108.791C200.339 108.526 199.818 108.153 199.39 107.674C198.969 107.189 198.649 106.622 198.429 105.975C198.209 105.321 198.099 104.612 198.099 103.848ZM200.896 103.644V103.848C200.896 104.288 200.934 104.699 201.012 105.081C201.09 105.463 201.213 105.8 201.381 106.091C201.556 106.376 201.783 106.6 202.061 106.761C202.339 106.923 202.679 107.004 203.081 107.004C203.469 107.004 203.803 106.923 204.081 106.761C204.359 106.6 204.583 106.376 204.751 106.091C204.92 105.8 205.043 105.463 205.12 105.081C205.204 104.699 205.246 104.288 205.246 103.848V103.644C205.246 103.217 205.204 102.815 205.12 102.44C205.043 102.058 204.916 101.721 204.741 101.43C204.573 101.132 204.35 100.899 204.071 100.73C203.793 100.562 203.456 100.478 203.061 100.478C202.666 100.478 202.33 100.562 202.051 100.73C201.779 100.899 201.556 101.132 201.381 101.43C201.213 101.721 201.09 102.058 201.012 102.44C200.934 102.815 200.896 103.217 200.896 103.644ZM224.214 94.8547V96.36L218.746 108.995H215.794L221.261 97.0399H214.22V94.8547H224.214ZM235.547 100.682V103.129C235.547 104.191 235.434 105.107 235.207 105.878C234.981 106.642 234.654 107.27 234.227 107.762C233.806 108.247 233.304 108.607 232.721 108.84C232.139 109.073 231.491 109.189 230.779 109.189C230.209 109.189 229.678 109.118 229.186 108.976C228.694 108.827 228.251 108.597 227.856 108.286C227.467 107.975 227.13 107.584 226.846 107.111C226.567 106.632 226.353 106.062 226.205 105.402C226.056 104.741 225.981 103.984 225.981 103.129V100.682C225.981 99.62 226.095 98.7103 226.321 97.9528C226.554 97.1888 226.881 96.564 227.302 96.0784C227.729 95.5928 228.234 95.2367 228.817 95.0101C229.4 94.777 230.047 94.6605 230.759 94.6605C231.329 94.6605 231.857 94.7349 232.342 94.8838C232.835 95.0263 233.278 95.2497 233.673 95.554C234.068 95.8583 234.405 96.25 234.683 96.7291C234.961 97.2017 235.175 97.7683 235.324 98.4287C235.473 99.0826 235.547 99.8336 235.547 100.682ZM232.741 103.498V100.303C232.741 99.7915 232.712 99.3448 232.653 98.9628C232.601 98.5808 232.521 98.2571 232.41 97.9916C232.3 97.7197 232.164 97.4996 232.003 97.3312C231.841 97.1629 231.656 97.0399 231.449 96.9622C231.242 96.8845 231.012 96.8456 230.759 96.8456C230.442 96.8456 230.161 96.9071 229.914 97.0302C229.675 97.1532 229.471 97.3506 229.303 97.6226C229.134 97.888 229.005 98.2441 228.914 98.6909C228.83 99.1311 228.788 99.6685 228.788 100.303V103.498C228.788 104.01 228.814 104.46 228.866 104.848C228.924 105.237 229.008 105.57 229.118 105.848C229.235 106.12 229.371 106.344 229.526 106.519C229.688 106.687 229.872 106.81 230.08 106.888C230.293 106.965 230.526 107.004 230.779 107.004C231.09 107.004 231.365 106.943 231.604 106.82C231.85 106.69 232.058 106.489 232.226 106.218C232.401 105.939 232.53 105.577 232.614 105.13C232.699 104.683 232.741 104.139 232.741 103.498ZM237.412 98.3218V97.574C237.412 97.0366 237.529 96.5478 237.762 96.1075C237.995 95.6673 238.338 95.3144 238.791 95.0489C239.244 94.7835 239.801 94.6508 240.462 94.6508C241.141 94.6508 241.708 94.7835 242.161 95.0489C242.621 95.3144 242.964 95.6673 243.191 96.1075C243.424 96.5478 243.54 97.0366 243.54 97.574V98.3218C243.54 98.8463 243.424 99.3286 243.191 99.7689C242.964 100.209 242.624 100.562 242.171 100.827C241.718 101.093 241.158 101.226 240.491 101.226C239.817 101.226 239.251 101.093 238.791 100.827C238.338 100.562 237.995 100.209 237.762 99.7689C237.529 99.3286 237.412 98.8463 237.412 98.3218ZM239.267 97.574V98.3218C239.267 98.5484 239.309 98.7653 239.393 98.9725C239.484 99.1732 239.62 99.3383 239.801 99.4678C239.989 99.5908 240.215 99.6523 240.481 99.6523C240.759 99.6523 240.986 99.5908 241.161 99.4678C241.336 99.3383 241.465 99.1732 241.549 98.9725C241.633 98.7653 241.676 98.5484 241.676 98.3218V97.574C241.676 97.3345 241.63 97.1143 241.54 96.9136C241.455 96.7064 241.323 96.5413 241.141 96.4183C240.967 96.2888 240.74 96.2241 240.462 96.2241C240.203 96.2241 239.982 96.2888 239.801 96.4183C239.62 96.5413 239.484 96.7064 239.393 96.9136C239.309 97.1143 239.267 97.3345 239.267 97.574ZM244.171 106.276V105.528C244.171 104.997 244.288 104.511 244.521 104.071C244.761 103.631 245.107 103.278 245.56 103.013C246.02 102.747 246.583 102.614 247.25 102.614C247.923 102.614 248.487 102.747 248.94 103.013C249.393 103.278 249.736 103.631 249.969 104.071C250.202 104.511 250.319 104.997 250.319 105.528V106.276C250.319 106.807 250.202 107.292 249.969 107.733C249.743 108.173 249.403 108.526 248.95 108.791C248.496 109.057 247.936 109.189 247.27 109.189C246.596 109.189 246.03 109.057 245.57 108.791C245.11 108.526 244.761 108.173 244.521 107.733C244.288 107.292 244.171 106.807 244.171 106.276ZM246.036 105.528V106.276C246.036 106.509 246.088 106.729 246.192 106.936C246.295 107.143 246.438 107.308 246.619 107.432C246.807 107.555 247.023 107.616 247.27 107.616C247.58 107.616 247.823 107.555 247.998 107.432C248.173 107.308 248.292 107.143 248.357 106.936C248.428 106.729 248.464 106.509 248.464 106.276V105.528C248.464 105.295 248.419 105.078 248.328 104.877C248.237 104.67 248.101 104.505 247.92 104.382C247.745 104.253 247.522 104.188 247.25 104.188C246.978 104.188 246.752 104.253 246.57 104.382C246.395 104.505 246.263 104.67 246.172 104.877C246.081 105.078 246.036 105.295 246.036 105.528ZM247.94 96.8748L241.035 107.927L239.675 107.208L246.58 96.1561L247.94 96.8748Z" fill="#E11C4B"/>
<path d="M112.46 130.504C112.695 130.504 112.912 130.456 113.112 130.359C113.311 130.263 113.475 130.132 113.603 129.964C113.731 129.793 113.804 129.599 113.822 129.382H114.762C114.744 129.724 114.629 130.043 114.415 130.338C114.205 130.63 113.929 130.867 113.587 131.048C113.245 131.227 112.869 131.316 112.46 131.316C112.026 131.316 111.646 131.239 111.322 131.086C111.002 130.933 110.735 130.723 110.521 130.456C110.311 130.189 110.152 129.882 110.046 129.537C109.942 129.188 109.891 128.819 109.891 128.431V128.207C109.891 127.819 109.942 127.452 110.046 127.106C110.152 126.757 110.311 126.449 110.521 126.182C110.735 125.915 111.002 125.705 111.322 125.552C111.646 125.399 112.026 125.322 112.46 125.322C112.912 125.322 113.307 125.415 113.646 125.6C113.984 125.782 114.249 126.031 114.442 126.348C114.637 126.661 114.744 127.017 114.762 127.416H113.822C113.804 127.178 113.737 126.962 113.619 126.77C113.505 126.578 113.348 126.425 113.149 126.311C112.953 126.193 112.723 126.134 112.46 126.134C112.157 126.134 111.903 126.195 111.696 126.316C111.493 126.433 111.331 126.594 111.21 126.797C111.093 126.996 111.007 127.219 110.954 127.464C110.904 127.706 110.879 127.954 110.879 128.207V128.431C110.879 128.684 110.904 128.933 110.954 129.179C111.003 129.425 111.087 129.647 111.205 129.847C111.326 130.046 111.488 130.206 111.691 130.327C111.897 130.445 112.154 130.504 112.46 130.504ZM126.289 130.397V131.209H121.199V130.498L123.747 127.662C124.06 127.313 124.302 127.017 124.473 126.775C124.647 126.53 124.769 126.311 124.836 126.118C124.907 125.922 124.943 125.723 124.943 125.52C124.943 125.264 124.89 125.032 124.783 124.826C124.68 124.616 124.526 124.448 124.323 124.324C124.12 124.199 123.875 124.137 123.586 124.137C123.241 124.137 122.952 124.204 122.721 124.34C122.493 124.471 122.322 124.656 122.208 124.895C122.094 125.134 122.037 125.408 122.037 125.718H121.049C121.049 125.28 121.145 124.879 121.338 124.516C121.53 124.153 121.815 123.864 122.192 123.651C122.57 123.433 123.034 123.325 123.586 123.325C124.078 123.325 124.498 123.412 124.847 123.586C125.196 123.757 125.463 123.999 125.648 124.313C125.837 124.623 125.931 124.986 125.931 125.403C125.931 125.63 125.892 125.862 125.814 126.097C125.739 126.328 125.634 126.56 125.499 126.791C125.367 127.023 125.212 127.251 125.034 127.475C124.859 127.699 124.672 127.92 124.473 128.137L122.39 130.397H126.289ZM132.25 129.104C132.25 129.578 132.14 129.98 131.919 130.311C131.702 130.639 131.406 130.888 131.032 131.059C130.662 131.23 130.244 131.316 129.777 131.316C129.311 131.316 128.89 131.23 128.516 131.059C128.143 130.888 127.847 130.639 127.63 130.311C127.413 129.98 127.304 129.578 127.304 129.104C127.304 128.794 127.363 128.511 127.48 128.255C127.601 127.995 127.77 127.769 127.988 127.577C128.208 127.384 128.468 127.236 128.768 127.133C129.07 127.026 129.403 126.973 129.766 126.973C130.244 126.973 130.669 127.066 131.043 127.251C131.417 127.432 131.711 127.683 131.924 128.004C132.142 128.324 132.25 128.691 132.25 129.104ZM131.257 129.083C131.257 128.794 131.194 128.54 131.07 128.319C130.945 128.095 130.771 127.92 130.546 127.796C130.322 127.671 130.062 127.609 129.766 127.609C129.464 127.609 129.202 127.671 128.981 127.796C128.764 127.92 128.595 128.095 128.474 128.319C128.353 128.54 128.292 128.794 128.292 129.083C128.292 129.382 128.351 129.638 128.468 129.852C128.589 130.062 128.76 130.224 128.981 130.338C129.206 130.448 129.471 130.504 129.777 130.504C130.083 130.504 130.347 130.448 130.568 130.338C130.788 130.224 130.958 130.062 131.075 129.852C131.196 129.638 131.257 129.382 131.257 129.083ZM132.069 125.456C132.069 125.833 131.969 126.173 131.769 126.476C131.57 126.779 131.298 127.017 130.952 127.192C130.607 127.366 130.215 127.454 129.777 127.454C129.332 127.454 128.935 127.366 128.586 127.192C128.241 127.017 127.97 126.779 127.774 126.476C127.578 126.173 127.48 125.833 127.48 125.456C127.48 125.004 127.578 124.619 127.774 124.302C127.973 123.985 128.246 123.743 128.591 123.576C128.937 123.408 129.33 123.325 129.772 123.325C130.217 123.325 130.612 123.408 130.958 123.576C131.303 123.743 131.574 123.985 131.769 124.302C131.969 124.619 132.069 125.004 132.069 125.456ZM131.08 125.472C131.08 125.212 131.025 124.982 130.915 124.783C130.804 124.583 130.651 124.427 130.455 124.313C130.26 124.195 130.032 124.137 129.772 124.137C129.512 124.137 129.284 124.192 129.088 124.302C128.896 124.409 128.744 124.562 128.634 124.762C128.527 124.961 128.474 125.198 128.474 125.472C128.474 125.739 128.527 125.972 128.634 126.172C128.744 126.371 128.898 126.526 129.093 126.636C129.289 126.747 129.517 126.802 129.777 126.802C130.037 126.802 130.263 126.747 130.455 126.636C130.651 126.526 130.804 126.371 130.915 126.172C131.025 125.972 131.08 125.739 131.08 125.472ZM138.633 130.504C138.868 130.504 139.086 130.456 139.285 130.359C139.484 130.263 139.648 130.132 139.776 129.964C139.905 129.793 139.978 129.599 139.995 129.382H140.935C140.918 129.724 140.802 130.043 140.588 130.338C140.378 130.63 140.102 130.867 139.76 131.048C139.418 131.227 139.043 131.316 138.633 131.316C138.199 131.316 137.82 131.239 137.496 131.086C137.175 130.933 136.908 130.723 136.694 130.456C136.484 130.189 136.326 129.882 136.219 129.537C136.116 129.188 136.064 128.819 136.064 128.431V128.207C136.064 127.819 136.116 127.452 136.219 127.106C136.326 126.757 136.484 126.449 136.694 126.182C136.908 125.915 137.175 125.705 137.496 125.552C137.82 125.399 138.199 125.322 138.633 125.322C139.086 125.322 139.481 125.415 139.819 125.6C140.157 125.782 140.423 126.031 140.615 126.348C140.811 126.661 140.918 127.017 140.935 127.416H139.995C139.978 127.178 139.91 126.962 139.792 126.77C139.678 126.578 139.522 126.425 139.322 126.311C139.126 126.193 138.897 126.134 138.633 126.134C138.331 126.134 138.076 126.195 137.869 126.316C137.666 126.433 137.504 126.594 137.383 126.797C137.266 126.996 137.18 127.219 137.127 127.464C137.077 127.706 137.052 127.954 137.052 128.207V128.431C137.052 128.684 137.077 128.933 137.127 129.179C137.177 129.425 137.261 129.647 137.378 129.847C137.499 130.046 137.661 130.206 137.864 130.327C138.071 130.445 138.327 130.504 138.633 130.504ZM144.445 131.316C144.042 131.316 143.677 131.248 143.35 131.113C143.026 130.974 142.746 130.78 142.511 130.53C142.28 130.281 142.102 129.986 141.977 129.644C141.852 129.302 141.79 128.928 141.79 128.522V128.298C141.79 127.828 141.86 127.409 141.998 127.042C142.137 126.672 142.326 126.359 142.565 126.102C142.803 125.846 143.074 125.652 143.377 125.52C143.679 125.388 143.993 125.322 144.317 125.322C144.73 125.322 145.086 125.394 145.385 125.536C145.688 125.679 145.935 125.878 146.127 126.134C146.32 126.387 146.462 126.686 146.555 127.032C146.647 127.374 146.694 127.747 146.694 128.153V128.597H142.378V127.79H145.705V127.715C145.691 127.459 145.638 127.21 145.545 126.968C145.456 126.725 145.314 126.526 145.118 126.369C144.922 126.213 144.655 126.134 144.317 126.134C144.092 126.134 143.886 126.182 143.697 126.279C143.508 126.371 143.346 126.51 143.211 126.695C143.076 126.88 142.971 127.106 142.896 127.374C142.821 127.641 142.784 127.949 142.784 128.298V128.522C142.784 128.796 142.821 129.054 142.896 129.296C142.974 129.535 143.086 129.745 143.232 129.927C143.382 130.108 143.562 130.251 143.772 130.354C143.985 130.457 144.228 130.509 144.498 130.509C144.847 130.509 145.143 130.438 145.385 130.295C145.627 130.153 145.839 129.962 146.021 129.724L146.619 130.199C146.494 130.388 146.336 130.568 146.143 130.739C145.951 130.91 145.714 131.048 145.433 131.155C145.155 131.262 144.826 131.316 144.445 131.316ZM151.768 127.934V128.736H148.713V127.934H151.768ZM148.921 125.429V131.209H147.933V125.429H148.921ZM152.569 125.429V131.209H151.576V125.429H152.569ZM156.517 125.429V131.209H155.523V125.429H156.517ZM158.456 125.429V126.23H153.622V125.429H158.456ZM160.598 128.453H161.666L159.994 131.209H158.926L160.598 128.453ZM161.425 125.429H163.84V131.209H162.852V126.23H161.425C161.144 126.23 160.914 126.279 160.736 126.375C160.558 126.467 160.428 126.588 160.346 126.738C160.265 126.887 160.224 127.042 160.224 127.203C160.224 127.359 160.261 127.511 160.336 127.657C160.411 127.799 160.528 127.917 160.688 128.009C160.849 128.102 161.055 128.148 161.308 128.148H163.119V128.96H161.308C160.977 128.96 160.683 128.915 160.427 128.826C160.17 128.737 159.953 128.615 159.775 128.458C159.597 128.298 159.462 128.111 159.369 127.897C159.276 127.68 159.23 127.445 159.23 127.192C159.23 126.939 159.278 126.706 159.374 126.492C159.474 126.279 159.616 126.092 159.802 125.931C159.99 125.771 160.22 125.648 160.491 125.563C160.765 125.474 161.077 125.429 161.425 125.429ZM169.139 122.913H169.951C169.951 123.262 169.897 123.54 169.79 123.747C169.683 123.95 169.537 124.106 169.352 124.217C169.171 124.327 168.964 124.411 168.733 124.468C168.505 124.525 168.268 124.58 168.022 124.633C167.716 124.697 167.431 124.799 167.168 124.938C166.908 125.073 166.683 125.265 166.495 125.515C166.309 125.764 166.172 126.088 166.083 126.487C165.998 126.886 165.975 127.379 166.014 127.966V128.458H165.202V127.966C165.202 127.308 165.264 126.733 165.389 126.241C165.517 125.75 165.697 125.335 165.928 124.997C166.16 124.658 166.434 124.389 166.751 124.19C167.071 123.991 167.424 123.853 167.809 123.779C168.086 123.725 168.325 123.668 168.524 123.608C168.724 123.544 168.875 123.458 168.978 123.351C169.085 123.245 169.139 123.099 169.139 122.913ZM167.969 125.76C168.346 125.76 168.683 125.826 168.978 125.958C169.274 126.09 169.525 126.273 169.732 126.508C169.938 126.743 170.095 127.021 170.202 127.341C170.312 127.658 170.367 128.004 170.367 128.378V128.495C170.367 128.898 170.308 129.272 170.191 129.617C170.077 129.959 169.908 130.258 169.683 130.514C169.463 130.767 169.192 130.965 168.872 131.107C168.555 131.25 168.193 131.321 167.787 131.321C167.381 131.321 167.018 131.25 166.698 131.107C166.381 130.965 166.11 130.767 165.886 130.514C165.661 130.258 165.49 129.959 165.373 129.617C165.259 129.272 165.202 128.898 165.202 128.495V128.378C165.202 128.289 165.218 128.201 165.25 128.116C165.282 128.031 165.321 127.943 165.368 127.854C165.417 127.765 165.462 127.671 165.501 127.571C165.633 127.251 165.813 126.953 166.041 126.679C166.272 126.405 166.548 126.184 166.868 126.017C167.193 125.846 167.559 125.76 167.969 125.76ZM167.777 126.567C167.413 126.567 167.114 126.651 166.879 126.818C166.648 126.985 166.475 127.208 166.361 127.486C166.247 127.76 166.19 128.057 166.19 128.378V128.495C166.19 128.766 166.222 129.022 166.286 129.264C166.35 129.507 166.446 129.722 166.575 129.911C166.706 130.096 166.872 130.242 167.071 130.349C167.274 130.456 167.513 130.509 167.787 130.509C168.061 130.509 168.298 130.456 168.498 130.349C168.697 130.242 168.861 130.096 168.989 129.911C169.117 129.722 169.213 129.507 169.277 129.264C169.342 129.022 169.374 128.766 169.374 128.495V128.378C169.374 128.136 169.342 127.906 169.277 127.689C169.213 127.471 169.115 127.279 168.984 127.112C168.856 126.944 168.69 126.813 168.487 126.717C168.288 126.617 168.051 126.567 167.777 126.567ZM172.381 126.54V133.431H171.387V125.429H172.295L172.381 126.54ZM176.275 128.271V128.383C176.275 128.803 176.225 129.193 176.125 129.553C176.026 129.909 175.88 130.219 175.687 130.482C175.499 130.746 175.265 130.951 174.988 131.097C174.71 131.243 174.391 131.316 174.031 131.316C173.665 131.316 173.341 131.255 173.059 131.134C172.778 131.013 172.539 130.837 172.344 130.605C172.148 130.374 171.991 130.096 171.873 129.772C171.76 129.448 171.681 129.083 171.638 128.677V128.079C171.681 127.651 171.761 127.268 171.879 126.93C171.996 126.592 172.151 126.303 172.344 126.065C172.539 125.823 172.776 125.639 173.054 125.515C173.332 125.387 173.652 125.322 174.015 125.322C174.379 125.322 174.701 125.394 174.982 125.536C175.264 125.675 175.5 125.874 175.693 126.134C175.885 126.394 176.029 126.706 176.125 127.069C176.225 127.429 176.275 127.829 176.275 128.271ZM175.281 128.383V128.271C175.281 127.982 175.251 127.712 175.191 127.459C175.13 127.203 175.036 126.978 174.907 126.786C174.783 126.59 174.623 126.437 174.427 126.327C174.231 126.213 173.998 126.156 173.727 126.156C173.478 126.156 173.26 126.198 173.075 126.284C172.894 126.369 172.739 126.485 172.611 126.631C172.482 126.774 172.377 126.937 172.295 127.122C172.217 127.304 172.158 127.493 172.119 127.689V129.072C172.19 129.321 172.29 129.556 172.418 129.777C172.546 129.994 172.717 130.171 172.931 130.306C173.145 130.438 173.414 130.504 173.738 130.504C174.005 130.504 174.234 130.448 174.427 130.338C174.623 130.224 174.783 130.069 174.907 129.873C175.036 129.678 175.13 129.453 175.191 129.2C175.251 128.944 175.281 128.672 175.281 128.383ZM178.705 128.453H179.774L178.102 131.209H177.033L178.705 128.453ZM179.533 125.429H181.948V131.209H180.959V126.23H179.533C179.252 126.23 179.022 126.279 178.844 126.375C178.666 126.467 178.536 126.588 178.454 126.738C178.372 126.887 178.331 127.042 178.331 127.203C178.331 127.359 178.369 127.511 178.444 127.657C178.518 127.799 178.636 127.917 178.796 128.009C178.956 128.102 179.163 128.148 179.416 128.148H181.226V128.96H179.416C179.084 128.96 178.791 128.915 178.534 128.826C178.278 128.737 178.061 128.615 177.883 128.458C177.705 128.298 177.569 128.111 177.477 127.897C177.384 127.68 177.338 127.445 177.338 127.192C177.338 126.939 177.386 126.706 177.482 126.492C177.582 126.279 177.724 126.092 177.909 125.931C178.098 125.771 178.328 125.648 178.598 125.563C178.873 125.474 179.184 125.429 179.533 125.429ZM187.294 125.429H188.283L188.197 127.593C188.176 128.141 188.113 128.615 188.01 129.013C187.907 129.412 187.775 129.752 187.615 130.034C187.455 130.311 187.275 130.545 187.075 130.733C186.88 130.922 186.677 131.081 186.466 131.209H185.975L186.002 130.402L186.205 130.397C186.322 130.258 186.436 130.116 186.547 129.97C186.657 129.82 186.758 129.644 186.851 129.441C186.944 129.234 187.02 128.983 187.081 128.688C187.145 128.388 187.186 128.023 187.204 127.593L187.294 125.429ZM187.54 125.429H191.017V131.209H190.029V126.343H187.54V125.429ZM185.751 130.397H191.76V132.913H190.772V131.209H186.739V132.913H185.745L185.751 130.397ZM192.593 128.383V128.26C192.593 127.844 192.654 127.457 192.775 127.101C192.896 126.741 193.07 126.43 193.298 126.166C193.526 125.899 193.802 125.693 194.126 125.547C194.45 125.397 194.813 125.322 195.216 125.322C195.622 125.322 195.987 125.397 196.311 125.547C196.638 125.693 196.916 125.899 197.144 126.166C197.376 126.43 197.552 126.741 197.673 127.101C197.794 127.457 197.855 127.844 197.855 128.26V128.383C197.855 128.8 197.794 129.186 197.673 129.542C197.552 129.898 197.376 130.21 197.144 130.477C196.916 130.74 196.64 130.947 196.316 131.097C195.996 131.243 195.632 131.316 195.227 131.316C194.821 131.316 194.456 131.243 194.131 131.097C193.807 130.947 193.53 130.74 193.298 130.477C193.07 130.21 192.896 129.898 192.775 129.542C192.654 129.186 192.593 128.8 192.593 128.383ZM193.581 128.26V128.383C193.581 128.672 193.615 128.944 193.683 129.2C193.75 129.453 193.852 129.678 193.987 129.873C194.126 130.069 194.299 130.224 194.505 130.338C194.712 130.448 194.952 130.504 195.227 130.504C195.497 130.504 195.734 130.448 195.937 130.338C196.143 130.224 196.314 130.069 196.45 129.873C196.585 129.678 196.687 129.453 196.754 129.2C196.825 128.944 196.861 128.672 196.861 128.383V128.26C196.861 127.975 196.825 127.706 196.754 127.454C196.687 127.197 196.583 126.971 196.444 126.775C196.309 126.576 196.138 126.419 195.932 126.305C195.729 126.191 195.49 126.134 195.216 126.134C194.945 126.134 194.707 126.191 194.5 126.305C194.297 126.419 194.126 126.576 193.987 126.775C193.852 126.971 193.75 127.197 193.683 127.454C193.615 127.706 193.581 127.975 193.581 128.26ZM206.727 123.432V123.987L203.506 131.209H202.464L205.68 124.243H201.471V123.432H206.727ZM210.412 128.383V128.26C210.412 127.844 210.473 127.457 210.594 127.101C210.715 126.741 210.89 126.43 211.117 126.166C211.345 125.899 211.621 125.693 211.945 125.547C212.269 125.397 212.633 125.322 213.035 125.322C213.441 125.322 213.806 125.397 214.13 125.547C214.458 125.693 214.735 125.899 214.963 126.166C215.195 126.43 215.371 126.741 215.492 127.101C215.613 127.457 215.674 127.844 215.674 128.26V128.383C215.674 128.8 215.613 129.186 215.492 129.542C215.371 129.898 215.195 130.21 214.963 130.477C214.735 130.74 214.459 130.947 214.135 131.097C213.815 131.243 213.452 131.316 213.046 131.316C212.64 131.316 212.275 131.243 211.951 131.097C211.627 130.947 211.349 130.74 211.117 130.477C210.89 130.21 210.715 129.898 210.594 129.542C210.473 129.186 210.412 128.8 210.412 128.383ZM211.401 128.26V128.383C211.401 128.672 211.434 128.944 211.502 129.2C211.57 129.453 211.671 129.678 211.807 129.873C211.945 130.069 212.118 130.224 212.325 130.338C212.531 130.448 212.772 130.504 213.046 130.504C213.316 130.504 213.553 130.448 213.756 130.338C213.963 130.224 214.134 130.069 214.269 129.873C214.404 129.678 214.506 129.453 214.573 129.2C214.645 128.944 214.68 128.672 214.68 128.383V128.26C214.68 127.975 214.645 127.706 214.573 127.454C214.506 127.197 214.402 126.971 214.264 126.775C214.128 126.576 213.957 126.419 213.751 126.305C213.548 126.191 213.309 126.134 213.035 126.134C212.764 126.134 212.526 126.191 212.319 126.305C212.116 126.419 211.945 126.576 211.807 126.775C211.671 126.971 211.57 127.197 211.502 127.454C211.434 127.706 211.401 127.975 211.401 128.26ZM217.987 125.429V131.209H216.998V125.429H217.987ZM221.779 125.429L219.039 128.741H217.655L217.506 127.876H218.638L220.577 125.429H221.779ZM220.716 131.209L218.59 128.591L219.226 127.876L221.971 131.209H220.716ZM225.187 125.429V131.209H224.193V125.429H225.187ZM227.126 125.429V126.23H222.292V125.429H227.126ZM229.268 128.453H230.336L228.664 131.209H227.596L229.268 128.453ZM230.096 125.429H232.51V131.209H231.522V126.23H230.096C229.814 126.23 229.585 126.279 229.407 126.375C229.229 126.467 229.099 126.588 229.017 126.738C228.935 126.887 228.894 127.042 228.894 127.203C228.894 127.359 228.931 127.511 229.006 127.657C229.081 127.799 229.198 127.917 229.359 128.009C229.519 128.102 229.725 128.148 229.978 128.148H231.789V128.96H229.978C229.647 128.96 229.353 128.915 229.097 128.826C228.841 128.737 228.623 128.615 228.445 128.458C228.267 128.298 228.132 128.111 228.039 127.897C227.947 127.68 227.9 127.445 227.9 127.192C227.9 126.939 227.949 126.706 228.045 126.492C228.144 126.279 228.287 126.092 228.472 125.931C228.661 125.771 228.89 125.648 229.161 125.563C229.435 125.474 229.747 125.429 230.096 125.429ZM237.809 122.913H238.621C238.621 123.262 238.567 123.54 238.461 123.747C238.354 123.95 238.208 124.106 238.023 124.217C237.841 124.327 237.634 124.411 237.403 124.468C237.175 124.525 236.938 124.58 236.693 124.633C236.386 124.697 236.101 124.799 235.838 124.938C235.578 125.073 235.354 125.265 235.165 125.515C234.98 125.764 234.843 126.088 234.754 126.487C234.668 126.886 234.645 127.379 234.684 127.966V128.458H233.872V127.966C233.872 127.308 233.935 126.733 234.059 126.241C234.187 125.75 234.367 125.335 234.599 124.997C234.83 124.658 235.104 124.389 235.421 124.19C235.742 123.991 236.094 123.853 236.479 123.779C236.757 123.725 236.995 123.668 237.195 123.608C237.394 123.544 237.545 123.458 237.649 123.351C237.756 123.245 237.809 123.099 237.809 122.913ZM236.639 125.76C237.017 125.76 237.353 125.826 237.649 125.958C237.944 126.09 238.195 126.273 238.402 126.508C238.608 126.743 238.765 127.021 238.872 127.341C238.982 127.658 239.037 128.004 239.037 128.378V128.495C239.037 128.898 238.979 129.272 238.861 129.617C238.747 129.959 238.578 130.258 238.354 130.514C238.133 130.767 237.862 130.965 237.542 131.107C237.225 131.25 236.864 131.321 236.458 131.321C236.052 131.321 235.688 131.25 235.368 131.107C235.051 130.965 234.78 130.767 234.556 130.514C234.332 130.258 234.161 129.959 234.043 129.617C233.929 129.272 233.872 128.898 233.872 128.495V128.378C233.872 128.289 233.888 128.201 233.92 128.116C233.952 128.031 233.992 127.943 234.038 127.854C234.088 127.765 234.132 127.671 234.171 127.571C234.303 127.251 234.483 126.953 234.711 126.679C234.942 126.405 235.218 126.184 235.539 126.017C235.863 125.846 236.23 125.76 236.639 125.76ZM236.447 126.567C236.084 126.567 235.785 126.651 235.549 126.818C235.318 126.985 235.145 127.208 235.031 127.486C234.917 127.76 234.86 128.057 234.86 128.378V128.495C234.86 128.766 234.892 129.022 234.957 129.264C235.021 129.507 235.117 129.722 235.245 129.911C235.377 130.096 235.542 130.242 235.742 130.349C235.945 130.456 236.183 130.509 236.458 130.509C236.732 130.509 236.969 130.456 237.168 130.349C237.367 130.242 237.531 130.096 237.659 129.911C237.788 129.722 237.884 129.507 237.948 129.264C238.012 129.022 238.044 128.766 238.044 128.495V128.378C238.044 128.136 238.012 127.906 237.948 127.689C237.884 127.471 237.786 127.279 237.654 127.112C237.526 126.944 237.36 126.813 237.157 126.717C236.958 126.617 236.721 126.567 236.447 126.567ZM241.051 126.54V133.431H240.058V125.429H240.966L241.051 126.54ZM244.945 128.271V128.383C244.945 128.803 244.895 129.193 244.796 129.553C244.696 129.909 244.55 130.219 244.358 130.482C244.169 130.746 243.936 130.951 243.658 131.097C243.38 131.243 243.061 131.316 242.702 131.316C242.335 131.316 242.011 131.255 241.73 131.134C241.448 131.013 241.21 130.837 241.014 130.605C240.818 130.374 240.661 130.096 240.544 129.772C240.43 129.448 240.351 129.083 240.309 128.677V128.079C240.351 127.651 240.432 127.268 240.549 126.93C240.667 126.592 240.822 126.303 241.014 126.065C241.21 125.823 241.447 125.639 241.724 125.515C242.002 125.387 242.323 125.322 242.686 125.322C243.049 125.322 243.371 125.394 243.653 125.536C243.934 125.675 244.171 125.874 244.363 126.134C244.555 126.394 244.699 126.706 244.796 127.069C244.895 127.429 244.945 127.829 244.945 128.271ZM243.952 128.383V128.271C243.952 127.982 243.921 127.712 243.861 127.459C243.8 127.203 243.706 126.978 243.578 126.786C243.453 126.59 243.293 126.437 243.097 126.327C242.901 126.213 242.668 126.156 242.397 126.156C242.148 126.156 241.931 126.198 241.746 126.284C241.564 126.369 241.409 126.485 241.281 126.631C241.153 126.774 241.048 126.937 240.966 127.122C240.887 127.304 240.829 127.493 240.79 127.689V129.072C240.861 129.321 240.96 129.556 241.089 129.777C241.217 129.994 241.388 130.171 241.601 130.306C241.815 130.438 242.084 130.504 242.408 130.504C242.675 130.504 242.905 130.448 243.097 130.338C243.293 130.224 243.453 130.069 243.578 129.873C243.706 129.678 243.8 129.453 243.861 129.2C243.921 128.944 243.952 128.672 243.952 128.383ZM247.376 128.453H248.444L246.772 131.209H245.704L247.376 128.453ZM248.204 125.429H250.618V131.209H249.63V126.23H248.204C247.922 126.23 247.693 126.279 247.514 126.375C247.336 126.467 247.206 126.588 247.125 126.738C247.043 126.887 247.002 127.042 247.002 127.203C247.002 127.359 247.039 127.511 247.114 127.657C247.189 127.799 247.306 127.917 247.466 128.009C247.627 128.102 247.833 128.148 248.086 128.148H249.897V128.96H248.086C247.755 128.96 247.461 128.915 247.205 128.826C246.948 128.737 246.731 128.615 246.553 128.458C246.375 128.298 246.24 128.111 246.147 127.897C246.054 127.68 246.008 127.445 246.008 127.192C246.008 126.939 246.056 126.706 246.152 126.492C246.252 126.279 246.395 126.092 246.58 125.931C246.768 125.771 246.998 125.648 247.269 125.563C247.543 125.474 247.855 125.429 248.204 125.429Z" fill="#333333"/>
<path d="M156.135 0L0.839666 157.67L0.343514 20.759C-0.763955 7.61158 0.103785 1.42544 13.7396 0H156.135Z" fill="#E11C4B"/>
<path d="M204.865 203L360.16 45.3301L360.656 182.241C361.764 195.388 360.896 201.575 347.26 203L204.865 203Z" fill="#E11C4B"/>
<path d="M249.617 48.2863L291.883 0.985352H342.105L249.617 48.2863Z" fill="#E11C4B"/>
<path d="M115.361 155.699L73.0951 203H22.8733L115.361 155.699Z" fill="#E11C4B"/>
<defs>
<filter id="filter0_d_1_911" x="-34.8071" y="-28.8494" width="430.614" height="271.647" filterUnits="userSpaceOnUse" color-interpolation-filters="sRGB">
<feFlood flood-opacity="0" result="BackgroundImageFix"/>
<feColorMatrix in="SourceAlpha" type="matrix" values="0 0 0 0 0 0 0 0 0 0 0 0 0 0 0 0 0 0 127 0" result="hardAlpha"/>
<feMorphology radius="3.97796" operator="dilate" in="SourceAlpha" result="effect1_dropShadow_1_911"/>
<feOffset dy="5.96694"/>
<feGaussianBlur stdDeviation="14.9174"/>
<feColorMatrix type="matrix" values="0 0 0 0 0.125 0 0 0 0 0.125 0 0 0 0 0.125 0 0 0 0.1 0"/>
<feBlend mode="normal" in2="BackgroundImageFix" result="effect1_dropShadow_1_911"/>
<feBlend mode="normal" in="SourceGraphic" in2="effect1_dropShadow_1_911" result="shape"/>
</filter>
</defs>
</svg>
